<?xml version="1.0" encoding="UTF-8" standalone="no"?>
<svg
   xmlns:dc="http://purl.org/dc/elements/1.1/"
   xmlns:cc="http://creativecommons.org/ns#"
   xmlns:rdf="http://www.w3.org/1999/02/22-rdf-syntax-ns#"
   xmlns:svg="http://www.w3.org/2000/svg"
   xmlns="http://www.w3.org/2000/svg"
   xmlns:sodipodi="http://sodipodi.sourceforge.net/DTD/sodipodi-0.dtd"
   xmlns:inkscape="http://www.inkscape.org/namespaces/inkscape"
   width="210mm"
   height="297mm"
   viewBox="0 0 210 297"
   version="1.1"
   id="svg8"
   inkscape:export-filename="C:\Users\joshin bridya\bitmap.png"
   inkscape:export-xdpi="96"
   inkscape:export-ydpi="96"
   inkscape:version="1.0.2 (e86c870879, 2021-01-15, custom)"
   sodipodi:docname="logoSVG.svg">
  <defs
     id="defs2" />
  <sodipodi:namedview
     id="base"
     pagecolor="#ffffff"
     bordercolor="#666666"
     borderopacity="1.0"
     inkscape:pageopacity="0.0"
     inkscape:pageshadow="2"
     inkscape:zoom="0.98994949"
     inkscape:cx="481.86601"
     inkscape:cy="413.5788"
     inkscape:document-units="mm"
     inkscape:current-layer="layer1"
     inkscape:document-rotation="0"
     showgrid="false"
     showguides="false"
     inkscape:window-width="1920"
     inkscape:window-height="1051"
     inkscape:window-x="-9"
     inkscape:window-y="-9"
     inkscape:window-maximized="1">
    <sodipodi:guide
       position="206.0648,259.98318"
       orientation="0,-1"
       id="guide633" />
  </sodipodi:namedview>
  <metadata
     id="metadata5">
    <rdf:RDF>
      <cc:Work
         rdf:about="">
        <dc:format>image/svg+xml</dc:format>
        <dc:type
           rdf:resource="http://purl.org/dc/dcmitype/StillImage" />
        <dc:title></dc:title>
      </cc:Work>
    </rdf:RDF>
  </metadata>
  <g
     inkscape:label="Lapis 1"
     inkscape:groupmode="layer"
     id="layer1">
    <path
       style="fill:#000000;fill-opacity:1;fill-rule:nonzero;stroke:none;stroke-width:0.264583"
       id="path18"
       d="m 68.381286,77.228731 c 1.286767,3.350786 2.417083,6.757167 3.469368,10.187799 1.427041,5.104321 2.080302,10.381795 2.714254,15.6313 0.441876,3.96576 0.72222,7.94643 0.876586,11.93307 0.08952,2.77706 0.102405,5.55587 0.08805,8.33411 0.0085,0.80698 0.0057,1.60169 -0.102246,2.40085 0,0 3.511383,-1.74431 3.511383,-1.74431 v 0 c 0.05676,-0.80354 0.04562,-1.60343 0.02812,-2.40907 -0.02927,-2.76797 -0.05796,-5.53648 -0.183898,-8.30217 C 78.595888,109.2773 78.333795,105.29623 77.815,101.34057 77.134417,96.079907 76.467368,90.789206 75.053242,85.665052 74.034779,82.211319 72.921018,78.787825 71.859764,75.347641 c 0,0 -3.478478,1.88109 -3.478478,1.88109 z" />
    <path
       style="fill:#000000;fill-opacity:1;fill-rule:nonzero;stroke:none;stroke-width:0.264583"
       id="path20"
       d="m 70.60304,77.445257 c 3.662342,-0.311018 7.346366,0.302382 10.972475,0.764408 3.570099,0.482549 7.16222,0.933122 10.641745,1.90115 0.510839,0.142118 1.012711,0.314685 1.519068,0.472027 3.463774,1.224963 6.693172,3.019901 9.812702,4.940628 1.89879,1.250389 3.67598,2.69747 5.21293,4.377534 0.76804,0.839557 1.38321,1.663658 2.08234,2.559262 1.33485,1.907119 2.62258,3.915698 3.32209,6.156685 0.13351,0.42772 0.22586,0.867219 0.33879,1.300819 0.4732,2.29842 0.80118,4.66051 0.80742,7.01314 10e-4,0.4724 -0.0395,0.94397 -0.0592,1.41595 -0.14722,1.85137 -0.50364,3.71884 -1.27571,5.42032 -0.38001,0.83746 -0.87631,1.60206 -1.35167,2.38556 -1.87972,2.96963 -4.65048,5.0818 -7.50777,7.03595 0.9989,-0.60014 -3.61066,2.27833 -2.7427,1.65608 0.59964,-0.42988 1.41631,-0.59002 1.88542,-1.15948 0.32757,-0.39763 -0.94243,0.41782 -1.42439,0.59983 -1.3284,0.50166 -1.65366,0.54092 -3.036898,0.88913 -3.148155,0.67588 -6.37346,0.77831 -9.578136,0.62074 -2.450126,-0.18275 -4.890624,-0.48382 -7.322582,-0.82986 -1.120899,-0.10924 -2.199936,-0.36786 -3.253142,-0.7553 -0.493469,-0.15957 -0.257934,-0.0796 -0.707141,-0.23828 0,0 -3.283873,2.21393 -3.283873,2.21393 v 0 c 0.461293,0.17485 0.223176,0.0957 0.715078,0.23515 0.445913,0.15817 0.895157,0.35384 1.354749,0.46773 0.654397,0.16216 1.339355,0.21915 2.004261,0.31481 2.463729,0.32304 4.934,0.60992 7.411254,0.80564 3.224263,0.18457 6.47206,0.0945 9.649114,-0.5362 1.435187,-0.33358 3.195658,-0.72807 4.510306,-1.41109 2.49972,-1.29873 4.96334,-2.71473 7.32765,-4.25273 2.88586,-2.01893 5.59622,-4.17188 7.48838,-7.20355 0.5291,-0.90008 0.91228,-1.48516 1.32253,-2.44811 0.74457,-1.74767 1.087,-3.64275 1.21781,-5.52819 0.0154,-0.48206 0.0507,-0.9639 0.0462,-1.44619 -0.0222,-2.37797 -0.35469,-4.76338 -0.83784,-7.086264 -0.11716,-0.445759 -0.21219,-0.897932 -0.35148,-1.337278 -0.72173,-2.276491 -2.05028,-4.304684 -3.42102,-6.234531 -0.7338,-0.94112 -1.3039,-1.709248 -2.10907,-2.593133 -1.55518,-1.707222 -3.34862,-3.183599 -5.28198,-4.442148 -3.13598,-1.931093 -6.37467,-3.750569 -9.833846,-5.039154 -0.514231,-0.161819 -1.022924,-0.342415 -1.542687,-0.485454 -3.521938,-0.969243 -7.170838,-1.342782 -10.775609,-1.856992 -3.565459,-0.473136 -7.154164,-1.098542 -10.760472,-1.030928 0,0 -3.185086,2.368389 -3.185086,2.368389 z" />
    <path
       style="fill:#000000;fill-opacity:1;fill-rule:nonzero;stroke:none;stroke-width:0.264583"
       id="path22"
       d="m 89.038897,66.643524 c 1.450999,4.298186 1.685166,8.89299 1.99176,13.383739 0.372557,6.814807 0.377965,13.641954 0.401124,20.464697 -0.04833,6.168 0.415017,12.31822 0.946811,18.45792 0.246446,2.40959 0.357802,4.82987 0.539565,7.24423 0.126339,1.67818 0.310163,3.35302 0.458838,5.02938 0.165497,2.26047 0.313618,4.52237 0.509802,6.78049 0.139959,1.50594 0.238577,3.01467 0.289115,4.52613 -0.03236,0.1883 -0.04029,0.38247 -0.09709,0.56488 -0.381881,1.22642 -1.442032,2.3734 -2.27811,3.31038 -0.222081,0.20678 -0.437928,0.42047 -0.666242,0.62035 -0.553667,0.48473 -0.855004,0.71378 -1.483601,1.10087 -0.264808,0.16307 -1.074386,0.6264 -0.81194,0.45956 2.523799,-1.6045 3.458924,-1.86091 1.579753,-1.20334 -1.025382,0.24558 -2.14839,0.65565 -3.202154,0.29339 -0.791081,-0.27195 -0.910503,-0.49046 -1.54313,-1.04303 -0.223903,-0.29094 -0.473704,-0.56367 -0.671713,-0.87283 -0.744136,-1.16182 -1.354807,-2.66416 -1.214385,-4.07001 0.0299,-0.29934 0.129498,-0.58756 0.194247,-0.88133 0.241024,-0.74637 0.621739,-1.37493 1.270648,-1.83212 0.202679,-0.1428 0.856273,-0.49988 0.646813,-0.36723 -2.687788,1.70216 -3.616073,1.92352 -1.841886,1.36858 1.780201,-0.40709 3.618587,-0.39759 5.434674,-0.41706 2.215269,0.0154 4.404024,0.44108 6.572694,0.85623 2.290469,0.59064 4.59005,1.09142 6.93533,1.40287 3.37397,0.30387 6.75938,0.44309 10.13755,0.69967 3.75073,0.36035 7.50873,0.60213 11.27631,0.65407 3.45317,-0.0854 6.92578,0.0755 10.37128,-0.23454 0.62913,-0.0566 1.25396,-0.15378 1.88094,-0.23067 1.50035,-0.21629 2.96238,-0.62233 4.36621,-1.19087 0.33255,-0.13467 0.66811,-0.26708 0.98162,-0.44155 1.37195,-0.76343 2.71373,-1.57986 4.07059,-2.3698 0,0 -3.62469,1.40517 -3.62469,1.40517 v 0 c 0.85793,-0.47942 1.73231,-0.9305 2.57377,-1.43826 0.31395,-0.18944 -0.6532,0.33433 -0.98888,0.4819 -1.40002,0.61546 -2.86422,1.06717 -4.37576,1.3114 -0.62713,0.0873 -1.25149,0.19758 -1.88139,0.26194 -3.43252,0.3507 -6.89858,0.16393 -10.34092,0.24724 -3.76118,-0.0357 -7.51471,-0.27569 -11.25861,-0.63665 -3.35536,-0.26282 -6.71582,-0.43905 -10.06902,-0.72335 -2.33185,-0.30423 -4.61785,-0.80667 -6.891712,-1.40548 -2.178727,-0.42371 -4.378714,-0.85089 -6.600775,-0.9298 -1.829567,0.004 -3.672895,0.002 -5.48065,0.31988 -2.237637,0.5771 -0.872972,0.15715 -4.886135,2.42534 -0.956159,0.54041 -1.496793,1.44018 -1.767371,2.48025 -0.05014,0.31858 -0.135599,0.63358 -0.150413,0.95574 -0.06801,1.47891 0.578286,3.03428 1.347575,4.2655 0.206907,0.33115 0.464918,0.62747 0.697376,0.94121 0.663078,0.62643 0.792551,0.86429 1.622557,1.22432 1.095399,0.47516 2.245413,0.12275 3.345836,-0.13311 2.40514,-0.72998 0.81338,-0.17863 5.105236,-2.56682 1.090028,-0.60654 2.06833,-1.38384 2.916907,-2.29756 0.880107,-1.03042 1.910017,-2.17263 2.223797,-3.53527 0.04699,-0.20407 0.04364,-0.41654 0.06547,-0.62481 -0.06059,-1.50888 -0.203702,-3.01176 -0.352012,-4.51421 -0.182605,-2.25176 -0.359828,-4.50377 -0.570693,-6.75318 -0.405437,-4.06069 -0.83249,-8.11818 -1.161944,-12.18634 -0.563054,-6.12105 -1.016098,-12.25646 -0.976723,-18.408226 -0.03316,-6.82752 -0.107857,-13.656926 -0.420084,-20.478303 -0.260561,-4.575963 -0.48069,-9.207558 -1.695513,-13.651997 0,0 -3.450646,1.90042 -3.450646,1.90042 z" />
    <circle
       id="path65"
       style="fill:#aa0000;stroke:#000000;stroke-width:0.264583"
       cx="1.8898809"
       cy="92.98214"
       r="0.024976548" />
    <circle
       id="path69"
       style="fill:#aa0000;stroke:#000000;stroke-width:0.264583"
       cx="78.052086"
       cy="102.43154"
       r="0.024976548" />
    <circle
       id="path73"
       style="fill:#aa0000;stroke:#000000;stroke-width:0.264583"
       cx="76.729164"
       cy="97.51786"
       r="0.024976548" />
    <path
       style="fill:#aa0000;stroke-width:0.264583"
       id="path85"
       d="m 67.499107,92.578001 c 0.529863,0.904491 1.076669,1.807694 1.771984,2.597539 0.192624,0.21881 0.401566,0.422701 0.60235,0.63405 1.230434,1.097812 2.600172,2.030214 3.944345,2.982452 1.17974,0.83426 2.522995,1.342788 3.856834,1.864988 1.712555,0.65779 3.495453,1.12267 5.279879,1.54041 1.482003,0.34914 3.000912,0.42687 4.516612,0.46256 1.897386,0.0175 3.79489,0.006 5.692331,0.007 1.371034,-0.003 2.741607,-0.0846 4.085209,-0.36544 1.117801,-0.30607 2.197669,-0.73551 3.282979,-1.13887 1.12408,-0.38948 2.18369,-0.93018 3.30418,-1.328225 1.08747,-0.420828 2.22175,-0.698648 3.36546,-0.914829 1.02978,-0.208745 2.07389,-0.309398 3.1217,-0.363421 0.75456,-0.007 1.51356,-0.07315 2.26837,-0.04262 0.46532,0.01881 0.75345,0.07378 1.2124,0.141597 1.12907,0.149564 2.19342,0.514832 3.2066,1.023276 0.72682,0.446092 1.46398,0.874112 2.15322,1.377162 0.43316,0.34065 0.93375,0.57511 1.38951,0.88026 0.50252,0.28 0.9177,0.65554 1.33303,1.04515 0.34429,0.36736 0.75797,0.655 1.13155,0.98954 0.44434,0.3643 0.88471,0.72278 1.29257,1.12788 0.28465,0.3024 0.65177,0.50465 0.96175,0.77508 0.1691,0.16057 0.0907,0.0791 0.23655,0.24321 0,0 2.40693,-1.45197 2.40693,-1.45197 v 0 c -0.1602,-0.18783 -0.0759,-0.0992 -0.25255,-0.2663 -0.29164,-0.29125 -0.67717,-0.46875 -0.96912,-0.76423 -0.41578,-0.40073 -0.83964,-0.78366 -1.29916,-1.13494 -0.36742,-0.34281 -0.77596,-0.63128 -1.13031,-0.98852 -0.27531,-0.25052 -0.14006,-0.1176 -0.40451,-0.40003 -0.28183,-0.26724 -0.62737,-0.45498 -0.94427,-0.67508 -0.43727,-0.33721 -0.96223,-0.53539 -1.40281,-0.87207 -0.70747,-0.503944 -1.45081,-0.947206 -2.18766,-1.4072 -1.03451,-0.522697 -2.11926,-0.914873 -3.27164,-1.083564 -0.28008,-0.04519 -0.95417,-0.160578 -1.23511,-0.17889 -0.75246,-0.04904 -1.51424,0.04267 -2.26723,0.027 -1.05486,0.04731 -2.10872,0.12469 -3.1455,0.336957 -1.15357,0.193479 -2.30045,0.470778 -3.39571,0.884473 -0.42972,0.142282 -0.6606,0.209616 -1.07696,0.383114 -0.74729,0.311396 -1.46063,0.707313 -2.2382,0.945065 -1.07882,0.399476 -2.15353,0.813475 -3.251124,1.158605 -1.335079,0.34026 -2.716556,0.41464 -4.089741,0.44572 -1.891226,0.009 -3.782687,0.0164 -5.67378,-0.0123 -1.505876,-0.0347 -3.017036,-0.0947 -4.495406,-0.41105 -1.777164,-0.38972 -3.546036,-0.857418 -5.24501,-1.513278 -1.309751,-0.526015 -2.641277,-1.010396 -3.81495,-1.816177 -1.341956,-0.929359 -2.703555,-1.847514 -3.931537,-2.925294 -0.194122,-0.206727 -0.396692,-0.405834 -0.582369,-0.62018 -0.675436,-0.779738 -1.210498,-1.668775 -1.678482,-2.584384 0,0 -2.433204,1.385427 -2.433204,1.385427 z" />
    <circle
       id="path89"
       style="fill:#0000ff;stroke:#000000;stroke-width:0.264583"
       cx="63.311008"
       cy="96.95089"
       r="0.024976548" />
    <circle
       id="path93"
       style="fill:#0000ff;stroke:#000000;stroke-width:0.264583"
       cx="69.108719"
       cy="87.577461"
       r="0.024976548" />
    <path
       style="fill:#0000ff;stroke-width:0.264583"
       id="path97"
       d="m 64.479579,97.081392 c 0.6345,1.036473 1.471332,1.937252 2.326818,2.793785 1.08771,1.112133 2.359146,2.011333 3.607231,2.929513 1.105146,0.71245 2.113952,1.55675 3.188499,2.31121 0.799766,0.60419 1.654505,1.099 2.561233,1.52239 1.505643,0.69397 3.096818,1.16252 4.697094,1.57963 0.969264,0.21268 1.916129,0.51627 2.892568,0.6979 0.651537,0.12118 0.856539,0.13214 1.521399,0.20743 1.839037,0.15192 3.686967,0.14853 5.531036,0.15732 1.764,0.0234 3.526488,-0.008 5.289018,-0.0766 0.751498,-0.0634 1.528749,-0.0772 2.253138,-0.31162 0.359971,-0.11652 0.469686,-0.18553 0.798211,-0.34924 1.203556,-0.65062 2.318466,-1.13122 3.184236,-2.10937 0.25056,-0.28309 0.49246,-0.56998 0.75086,-0.84681 0.3793,-0.2897 0.732,-0.62284 1.13307,-0.88372 0.0182,-0.0118 0.60999,-0.34989 0.63424,-0.36376 1.32032,-0.85341 -2.44768,1.38491 -1.83105,1.04709 0.90153,-0.4939 1.78449,-1.02106 2.67101,-1.54142 0.19266,-0.11308 0.75768,-0.47341 0.56435,-0.36148 -0.69591,0.40285 -1.39001,0.80883 -2.08502,1.21325 0.61245,-0.34705 1.26207,-0.61925 1.92465,-0.85354 0.8661,-0.30027 1.78231,-0.359 2.69119,-0.37056 0.89616,0.0169 1.80007,0.0605 2.68268,0.22932 0.34052,0.0651 0.85614,0.21246 1.19317,0.3044 1.01593,0.29405 1.96441,0.76735 2.87405,1.29917 1.11679,0.62106 2.21043,1.27481 3.21836,2.06198 0.67809,0.52961 1.27261,1.15425 1.92175,1.71562 0.73078,0.57105 1.46615,1.13182 2.16942,1.73744 0.72705,0.63269 1.40944,1.31132 2.07589,2.0066 0.49549,0.50603 0.24618,0.24669 0.74745,0.77847 0,0 2.35647,-1.43265 2.35647,-1.43265 v 0 c -0.49702,-0.53941 -0.25049,-0.27777 -0.73889,-0.78555 -0.66139,-0.71295 -1.36778,-1.38079 -2.09473,-2.02661 -0.69474,-0.61425 -1.42571,-1.17827 -2.15436,-1.75071 -0.66251,-0.55562 -1.25995,-1.18858 -1.95204,-1.71127 -1.02018,-0.78955 -2.11458,-1.46098 -3.24261,-2.08598 -0.91685,-0.5627 -1.8711,-1.0713 -2.91242,-1.36393 -0.23426,-0.064 -0.9973,-0.27607 -1.22208,-0.32214 -0.88341,-0.18106 -1.79162,-0.23908 -2.69036,-0.2743 -0.91589,-0.0186 -1.84077,0.0216 -2.72616,0.27905 -0.66832,0.23035 -1.33256,0.4716 -1.95125,0.81541 -0.89464,0.51411 -1.79141,1.02454 -2.68393,1.54233 -0.1016,0.0589 -0.19877,0.12521 -0.29821,0.18775 -0.0902,0.0568 -0.36364,0.22264 -0.27084,0.17015 4.5932,-2.59772 0.70323,-0.46305 -0.83612,0.49174 -0.62561,0.3744 -1.21568,0.80771 -1.73408,1.32273 -0.25442,0.27797 -0.49778,0.56896 -0.760588,0.839 -0.69274,0.71182 -2.124792,1.46478 1.555428,-0.70059 -0.37946,0.22427 -0.78048,0.44725 -1.2121,0.55722 -0.584014,0.14879 -1.205428,0.15873 -1.799952,0.23126 -1.767009,0.0866 -3.533709,0.13264 -5.303144,0.10303 -1.832443,-0.006 -3.668038,-0.001 -5.495933,-0.14743 -0.743704,-0.0783 -1.474491,-0.16984 -2.205424,-0.33241 -0.822031,-0.18283 -0.606755,-0.1608 -1.433782,-0.36586 -0.250875,-0.0622 -0.503751,-0.11605 -0.755626,-0.17408 -1.588471,-0.39129 -3.166801,-0.84573 -4.649235,-1.54925 -0.890807,-0.419 -1.724998,-0.91921 -2.525035,-1.49294 -1.093954,-0.7273 -2.097225,-1.58177 -3.205752,-2.28961 -1.241589,-0.90522 -2.515196,-1.781972 -3.589412,-2.890457 -0.834207,-0.841735 -1.666674,-1.72769 -2.229744,-2.779467 0,0 -2.424642,1.411206 -2.424642,1.411206 z" />
  </g>
</svg>
